<?xml version="1.0" encoding="UTF-8"?>
<svg version="1.1" xmlns="http://www.w3.org/2000/svg" width="512" height="512">
<path d="M0 0 C18.08110429 10.69265734 33.98150811 12.27299469 54.70898438 11.93554688 C67.04040917 11.830044 78.58396508 12.80380229 88.19140625 21.34375 C93.96013864 27.45999639 98.53884121 34.48527822 102.8125 41.6875 C112.60685974 57.83183757 126.2612334 67.3075377 142.96142578 75.18066406 C154.52475544 80.68933549 163.32531309 86.09808329 168.8125 98.0625 C171.25354293 105.09964886 171.99161718 112.36977729 172.82861328 119.72900391 C175.17747287 140.31907512 180.56699208 156.57860325 193.40380859 173.11206055 C203.60417129 186.40844656 206.22356996 198.51283891 204.8125 215.0625 C203.86683795 220.31231507 201.88564205 225.16578167 199.8125 230.0625 C198.76299263 232.58013105 197.72184671 235.10110319 196.6875 237.625 C196.43323242 238.24463623 196.17896484 238.86427246 195.91699219 239.50268555 C190.43826873 253.21206006 189.83997925 265.85523666 192.3125 280.1875 C194.92577848 295.44533048 196.31974042 311.43366536 187.1875 324.75 C181.85354061 331.60238579 175.46046344 336.76820164 168.6875 342.125 C155.41826796 352.73219475 148.62601951 365.29142698 142.8125 381.0625 C134.7982649 402.78345481 134.7982649 402.78345481 129.8125 408.0625 C129.1525 408.0625 128.4925 408.0625 127.8125 408.0625 C127.8125 408.7225 127.8125 409.3825 127.8125 410.0625 C118.72667804 417.0979816 107.88015525 419.67410896 96.875 422 C80.75237851 425.4574811 66.15673823 431.77290858 54.8125 444.0625 C54.1525 444.0625 53.4925 444.0625 52.8125 444.0625 C52.8125 444.7225 52.8125 445.3825 52.8125 446.0625 C50.34249987 448.61132992 47.55288725 450.81096399 44.8125 453.0625 C44.15378906 453.60777344 43.49507813 454.15304687 42.81640625 454.71484375 C33.43807275 462.13070908 24.55506341 464.88193716 12.6875 463.5 C7.23179975 462.66201382 2.08656563 461.31200863 -3.20947266 459.77050781 C-24.14098955 453.79007441 -41.15614066 455.29741118 -61.91796875 461.43359375 C-73.49262422 464.69798652 -83.93102617 464.99079382 -94.9296875 459.7578125 C-101.31603564 456.03707054 -106.18639691 451.23076282 -111.28540039 445.9765625 C-124.78601365 432.15550125 -139.51674606 425.39189363 -158.09423828 421.50537109 C-167.89675505 419.43145397 -177.15639379 417.33203369 -185.1875 411.0625 C-186.32251953 410.18851562 -186.32251953 410.18851562 -187.48046875 409.296875 C-195.84944636 401.51847929 -198.54834871 390.37439977 -202.20019531 379.87158203 C-205.51585498 370.43785795 -209.3274836 362.17608274 -215.55078125 354.26953125 C-217.1875 352.0625 -217.1875 352.0625 -218.1875 349.0625 C-218.8475 349.0625 -219.5075 349.0625 -220.1875 349.0625 C-220.1875 348.4025 -220.1875 347.7425 -220.1875 347.0625 C-220.71601563 346.84207031 -221.24453125 346.62164062 -221.7890625 346.39453125 C-225.05512845 344.5806412 -227.75384606 342.18653965 -230.5625 339.75 C-231.67429725 338.79536101 -232.78627554 337.84093283 -233.8984375 336.88671875 C-234.44435547 336.41355225 -234.99027344 335.94038574 -235.55273438 335.45288086 C-236.62141011 334.54396385 -237.70576838 333.65308986 -238.80664062 332.78344727 C-242.25162171 330.05365547 -244.62966049 327.35671298 -246.9375 323.625 C-247.50984375 322.71878906 -248.0821875 321.81257813 -248.671875 320.87890625 C-254.5649726 309.92807282 -253.65987446 297.56004533 -251.75 285.6875 C-248.35802652 264.38528841 -251.00808048 247.84130015 -259.36914062 228.06298828 C-264.39192365 216.13750777 -266.85651017 202.80938655 -262.625 190.1875 C-259.28339289 182.44475182 -254.38702152 175.68504569 -249.43041992 168.91455078 C-237.88960515 153.09368445 -234.07890975 138.27013916 -231.81445312 118.9765625 C-230.22273866 106.4026842 -227.95484049 93.22033088 -218.24609375 84.2734375 C-212.8849876 80.18967316 -206.96374786 77.4833353 -200.875 74.6875 C-192.61516911 70.88863748 -185.31954756 66.77968792 -178.1875 61.0625 C-177.30449219 60.35867187 -176.42148438 59.65484375 -175.51171875 58.9296875 C-167.62709578 51.85104821 -162.46883093 43.06900779 -157.1081543 34.00976562 C-151.15034931 24.18040563 -143.36694459 16.74304072 -132.11743164 13.45800781 C-124.57045092 11.77927745 -117.25877674 11.95739563 -109.5625 12.125 C-88.64211371 12.38251196 -73.35815456 8.50425169 -55.41674805 -2.33398438 C-35.59706267 -14.1644953 -19.13753074 -11.72328563 0 0 Z " fill="#FDFEFE" transform="translate(285.1875,31.9375)"/>
<path d="M0 0 C4.474834 2.27963242 6.83758394 4.50040745 9 9 C9.34057617 12.41333008 9.34057617 12.41333008 9.29296875 16.26953125 C9.28872391 16.95053391 9.28447906 17.63153656 9.28010559 18.33317566 C9.2634061 20.49336459 9.22577312 22.65259642 9.1875 24.8125 C9.17244174 26.28318958 9.15875534 27.75389389 9.14648438 29.22460938 C9.11353214 32.81671357 9.06181173 36.40826326 9 40 C9.763125 40.29261719 10.52625 40.58523437 11.3125 40.88671875 C16.83750897 43.17542159 20.96535004 46.64682505 25 51 C25.680625 51.721875 26.36125 52.44375 27.0625 53.1875 C31.93216773 60.25637251 33.37151529 66.64162338 33.4375 75.125 C33.44749023 75.87676514 33.45748047 76.62853027 33.46777344 77.40307617 C33.40665015 81.39049773 32.93119472 84.54067575 31.41015625 88.2421875 C29.71865956 92.39594431 30.00596519 94.63080795 31.74755859 98.78173828 C32.68638656 100.89706566 33.67857528 102.97973128 34.6875 105.0625 C35.04328125 105.80749756 35.3990625 106.55249512 35.765625 107.32006836 C38.76825962 113.58430138 41.85046736 119.80830516 45 126 C45.92296875 125.71125 46.8459375 125.4225 47.796875 125.125 C68.30098382 119.12483902 87.0025027 121.1460136 106 131 C106.88558594 131.54527344 107.77117187 132.09054688 108.68359375 132.65234375 C110.84146836 134.16762459 110.84146836 134.16762459 113 134 C114.70825322 131.63403953 116.30731125 129.26915512 117.875 126.8125 C124.17716535 117.04133858 124.17716535 117.04133858 127 114 C127.99 114 128.98 114 130 114 C129.59137187 119.66344251 127.94674824 123.19740762 124.5625 127.625 C121.84418044 131.26660346 119.4782176 134.65420182 118 139 C118.81791016 139.73089844 118.81791016 139.73089844 119.65234375 140.4765625 C130.00420127 150.20907812 136.67158325 161.48511224 141 175 C141.23332031 175.72703125 141.46664063 176.4540625 141.70703125 177.203125 C143.29329247 182.81780502 143.45815151 188.03966657 144 194 C152.25 194.66 160.5 195.32 169 196 C169.33 197.65 169.66 199.3 170 201 C160.94706663 201.13534286 152.02140429 200.75741925 143 200 C143.103125 201.155 143.20625 202.31 143.3125 203.5 C143.3125 220.76102092 132.89560791 236.79247521 121.5 248.8125 C118.04804265 252.17676329 114.1856904 254.64079268 110 257 C111.01965672 262.12377502 113.49724723 266.75589166 115.625 271.4921875 C118.63820256 279.17927813 118.18337498 287.04882655 118.1875 295.1875 C118.19974609 296.47076172 118.21199219 297.75402344 118.22460938 299.07617188 C118.22654297 300.30271484 118.22847656 301.52925781 118.23046875 302.79296875 C118.23457764 303.9121167 118.23868652 305.03126465 118.24291992 306.18432617 C118 309 118 309 116 312 C112.875 313.0625 112.875 313.0625 109 313 C105.99285271 311.40614968 103.56757042 309.21597519 101 307 C99.33471671 305.7065503 97.66799533 304.41495044 96 303.125 C94.29665846 301.79570305 92.63544242 300.41199535 91 299 C90.12674072 298.30668579 90.12674072 298.30668579 89.23583984 297.59936523 C81.61786721 290.92060769 77.93090204 281.77364088 73.625 272.8125 C72.78731961 271.09793126 71.94836514 269.38398443 71.1081543 267.6706543 C69.08048244 263.52615369 67.07190367 259.37276155 65.06988525 255.21582031 C63.5735533 252.11679383 62.0580644 249.02739499 60.54296875 245.9375 C59.63129838 244.06323574 58.72097688 242.18831427 57.8125 240.3125 C57.20752686 239.06980347 57.20752686 239.06980347 56.59033203 237.80200195 C54 232.35616254 54 232.35616254 54 229 C52.77667969 229.39832031 51.55335938 229.79664063 50.29296875 230.20703125 C32.21551942 235.96323352 15.67187578 238.26094044 -3.25 238.3125 C-4.01513916 238.31626648 -4.78027832 238.32003296 -5.56860352 238.32391357 C-19.57596093 238.3588306 -33.02690249 237.08989774 -46.625 233.5 C-47.46933594 233.28730469 -48.31367188 233.07460938 -49.18359375 232.85546875 C-53.24793216 231.81218188 -57.14902611 230.69757216 -61 229 C-61.1242334 229.57065186 -61.2484668 230.14130371 -61.37646484 230.72924805 C-62.0269709 233.09822097 -62.90817427 235.12092174 -63.9765625 237.33203125 C-64.39268799 238.19820068 -64.80881348 239.06437012 -65.23754883 239.95678711 C-65.92433716 241.37036499 -65.92433716 241.37036499 -66.625 242.8125 C-67.62110382 244.87239097 -68.61719696 246.93228709 -69.61328125 248.9921875 C-70.1542041 250.10819336 -70.69512695 251.22419922 -71.25244141 252.37402344 C-72.80710968 255.59086071 -74.33966084 258.81786754 -75.86779785 262.04737854 C-77.18477882 264.82813966 -78.50914683 267.60535058 -79.83441162 270.38217163 C-80.48033686 271.73950139 -81.12334152 273.09822532 -81.76324463 274.45840454 C-87.52025831 286.68362789 -93.58708274 295.33715287 -104 304 C-104.5043457 304.42055664 -105.00869141 304.84111328 -105.52832031 305.27441406 C-107.0866565 306.55803425 -108.66336633 307.8140868 -110.25 309.0625 C-111.68085938 310.19365234 -111.68085938 310.19365234 -113.140625 311.34765625 C-116.45559995 313.26327702 -118.23344748 313.57746869 -122 313 C-123.6496582 311.90454102 -123.6496582 311.90454102 -125 310 C-125.5744944 305.58732762 -125.47228244 301.1515819 -125.44604492 296.70605469 C-125.43763483 294.53481035 -125.46612074 292.36628994 -125.49804688 290.1953125 C-125.54433379 281.77914136 -124.66467981 274.68737448 -121 267 C-120.30596069 265.53554443 -120.30596069 265.53554443 -119.59790039 264.04150391 C-118.04233317 260.86021987 -116.43485709 257.71020482 -114.8125 254.5625 C-110.28861255 245.66802331 -105.94664373 236.73967087 -101.97973633 227.58227539 C-99.62754698 222.19855769 -96.93244551 217.09046701 -94 212 C-94.721875 211.74089844 -95.44375 211.48179687 -96.1875 211.21484375 C-117.27743734 202.10516248 -135.64066577 179.53900135 -148 161 C-147.94226472 156.79494686 -147.70153885 154.72331074 -144.734375 151.6640625 C-143.74953125 150.99117187 -142.7646875 150.31828125 -141.75 149.625 C-140.66976562 148.87605469 -139.58953125 148.12710938 -138.4765625 147.35546875 C-137.90711914 146.97310059 -137.33767578 146.59073242 -136.75097656 146.19677734 C-134.97365199 144.98199136 -133.24779402 143.71443416 -131.5234375 142.42578125 C-130.39113333 141.59566035 -129.25833448 140.76621371 -128.125 139.9375 C-127.09632813 139.18339844 -126.06765625 138.42929688 -125.0078125 137.65234375 C-121.58832142 135.7738441 -119.83545778 135.33637175 -116 136 C-112.51571297 138.7056754 -110.15820653 142.39630846 -107.5625 145.9375 C-99.49900161 156.62632344 -88.08199053 170.63933649 -75 175 C-74.6390625 173.78570312 -74.278125 172.57140625 -73.90625 171.3203125 C-71.74849745 164.85965855 -68.59956821 158.92463421 -65.5 152.875 C-64.23223636 150.37543266 -62.96948742 147.87334511 -61.70703125 145.37109375 C-61.39147781 144.74680984 -61.07592438 144.12252594 -60.75080872 143.47932434 C-56.44905967 134.9529649 -52.36096557 126.32459194 -48.27587891 117.69287109 C-46.97403701 114.94520249 -45.66547627 112.20081505 -44.35546875 109.45703125 C-43.52849692 107.72142511 -42.70166715 105.98575128 -41.875 104.25 C-41.49625732 103.457146 -41.11751465 102.66429199 -40.72729492 101.84741211 C-40.38158447 101.11917236 -40.03587402 100.39093262 -39.6796875 99.640625 C-39.37788574 99.00672852 -39.07608398 98.37283203 -38.76513672 97.71972656 C-37.88495965 95.81607469 -37.88495965 95.81607469 -37 93 C-37.77991569 90.99544419 -37.77991569 90.99544419 -38.9375 88.8125 C-42.44040619 80.47631557 -42.50743108 70.08122651 -39.4375 61.5625 C-35.57642368 53.50165645 -29.82442552 46.4606538 -22 42 C-20.00598767 41.3156322 -18.00639241 40.6471738 -16 40 C-16.02356567 38.58521362 -16.02356567 38.58521362 -16.04760742 37.1418457 C-16.09886007 33.62876852 -16.13640991 30.11609102 -16.16479492 26.6027832 C-16.17984353 25.08481562 -16.20028738 23.56689124 -16.22631836 22.04907227 C-16.26287653 19.86203323 -16.27976523 17.67557104 -16.29296875 15.48828125 C-16.31653442 13.51661987 -16.31653442 13.51661987 -16.34057617 11.50512695 C-15.88144666 6.7798779 -14.44211547 4.19489567 -10.8125 1.1875 C-7.13998514 -0.36311739 -3.88989939 -0.68645283 0 0 Z " fill="#4485F3" transform="translate(259,83)"/>
<path d="M0 0 C0.99 0 1.98 0 3 0 C2.59137187 5.66344251 0.94674824 9.19740762 -2.4375 13.625 C-5.15581956 17.26660346 -7.5217824 20.65420182 -9 25 C-8.45472656 25.48726562 -7.90945313 25.97453125 -7.34765625 26.4765625 C3.00420127 36.20907812 9.67158325 47.48511224 14 61 C14.23332031 61.72703125 14.46664062 62.4540625 14.70703125 63.203125 C16.29329247 68.81780502 16.45815151 74.03966657 17 80 C25.25 80.66 33.5 81.32 42 82 C42.33 83.65 42.66 85.3 43 87 C33.94706663 87.13534286 25.02140429 86.75741925 16 86 C16.103125 87.155 16.20625 88.31 16.3125 89.5 C16.3125 104.79089702 7.75344748 119.87731855 -2 131 C-2.5671875 131.65097656 -3.134375 132.30195313 -3.71875 132.97265625 C-8.16575918 137.74480054 -13.30870638 140.87379646 -19 144 C-21.56029003 139.93408487 -23.27719939 135.89207333 -24.9375 131.40234375 C-26.02035065 128.95398658 -27.39200786 127.12419416 -29 125 C-29 124.34 -29 123.68 -29 123 C-29.66 123 -30.32 123 -31 123 C-31.495 119.04 -31.495 119.04 -32 115 C-32.66 115 -33.32 115 -34 115 C-34.67528223 113.42032193 -35.33989694 111.83608097 -36 110.25 C-36.37125 109.36828125 -36.7425 108.4865625 -37.125 107.578125 C-38 105 -38 105 -38 101 C-38.66 101 -39.32 101 -40 101 C-41.9688376 97.40687138 -42.6941048 94.0191867 -43.4375 90.0234375 C-43.8787518 87.7933256 -43.8787518 87.7933256 -46 86 C-46 85.01 -46 84.02 -46 83 C-46.66 83 -47.32 83 -48 83 C-48.68359375 81.27473958 -49.3671875 79.54947917 -50.05078125 77.82421875 C-50.89567438 75.93946429 -50.89567438 75.93946429 -52.45703125 74.69140625 C-54.73434466 72.19500952 -55.3519535 69.44959511 -56.375 66.25 C-58.22217579 60.71483244 -60.43163309 56.60131523 -64 52 C-65.04718798 49.68745988 -66.04346365 47.3514852 -67 45 C-68.31578611 42.43203073 -69.65282615 39.87744955 -71.01171875 37.33203125 C-72 35 -72 35 -72 31 C-72.66 31 -73.32 31 -74 31 C-76.18416398 26.72709668 -78.29974822 22.49352257 -80 18 C-80.556875 16.6078125 -80.556875 16.6078125 -81.125 15.1875 C-81.41375 14.465625 -81.7025 13.74375 -82 13 C-80.2675 12.319375 -80.2675 12.319375 -78.5 11.625 C-77.8503125 11.36976563 -77.200625 11.11453125 -76.53125 10.8515625 C-58.26857512 4.70763792 -40.54332221 7.69843872 -23.40234375 15.75390625 C-21 17 -21 17 -18.31640625 18.65234375 C-16.15853164 20.16762459 -16.15853164 20.16762459 -14 20 C-12.29174678 17.63403953 -10.69268875 15.26915512 -9.125 12.8125 C-2.82283465 3.04133858 -2.82283465 3.04133858 0 0 Z " fill="#3EDC86" transform="translate(386,197)"/>
<path d="M0 0 C4.474834 2.27963242 6.83758394 4.50040745 9 9 C9.34057617 12.41333008 9.34057617 12.41333008 9.29296875 16.26953125 C9.28872391 16.95053391 9.28447906 17.63153656 9.28010559 18.33317566 C9.2634061 20.49336459 9.22577312 22.65259642 9.1875 24.8125 C9.17244174 26.28318958 9.15875534 27.75389389 9.14648438 29.22460938 C9.11353214 32.81671357 9.06181173 36.40826326 9 40 C9.763125 40.29261719 10.52625 40.58523437 11.3125 40.88671875 C16.83750897 43.17542159 20.96535004 46.64682505 25 51 C25.680625 51.721875 26.36125 52.44375 27.0625 53.1875 C33.5791163 62.6471043 34.43646012 72.80173454 33 84 C29.9890638 95.74905741 23.79397996 102.23280281 13.78125 108.51953125 C8.29717051 111.43872525 3.42149429 112.36417519 -2.75 112.3125 C-3.80670898 112.30404053 -3.80670898 112.30404053 -4.88476562 112.29541016 C-16.32547161 112.03062755 -23.17846366 108.2393827 -31.5 100.75 C-33 99 -33 99 -33 97 C-33.66 97 -34.32 97 -35 97 C-35.63032133 95.79443396 -36.2539497 94.58536811 -36.875 93.375 C-37.22304687 92.70210938 -37.57109375 92.02921875 -37.9296875 91.3359375 C-42.0671238 82.30605827 -42.89581938 71.01721865 -39.4375 61.5625 C-35.57642368 53.50165645 -29.82442552 46.4606538 -22 42 C-20.00598767 41.3156322 -18.00639241 40.6471738 -16 40 C-16.01571045 39.05680908 -16.0314209 38.11361816 -16.04760742 37.1418457 C-16.09886007 33.62876852 -16.13640991 30.11609102 -16.16479492 26.6027832 C-16.17984353 25.08481562 -16.20028738 23.56689124 -16.22631836 22.04907227 C-16.26287653 19.86203323 -16.27976523 17.67557104 -16.29296875 15.48828125 C-16.3086792 14.17384033 -16.32438965 12.85939941 -16.34057617 11.50512695 C-15.88144666 6.7798779 -14.44211547 4.19489567 -10.8125 1.1875 C-7.13998514 -0.36311739 -3.88989939 -0.68645283 0 0 Z " fill="#0A3244" transform="translate(259,83)"/>
<path d="M0 0 C2.56235953 3.18323155 4.36750336 6.4907583 6.1875 10.14453125 C6.63576897 11.04114471 6.63576897 11.04114471 7.09309387 11.95587158 C8.0663428 13.90598297 9.03341396 15.85907859 10 17.8125 C10.67655571 19.17315574 11.35323332 20.53375086 12.0300293 21.89428711 C17.35689698 32.62219557 22.56405462 43.4053677 27.68847656 54.23144531 C29.55812968 58.17818141 31.43802019 62.12001986 33.31713867 66.06225586 C35.21326007 70.04063137 37.10679804 74.02023457 39 78 C35.06290042 81.93709958 28.31990673 81.98590973 23 83 C21.97261719 83.21011719 20.94523437 83.42023438 19.88671875 83.63671875 C0.74289999 87.13772841 -19.70094154 85.58442942 -38 79 C-36.33293193 73.33243535 -33.77336631 68.21580705 -31.16015625 62.94140625 C-30.43777016 61.47114235 -30.43777016 61.47114235 -29.70079041 59.97117615 C-28.15826766 56.83317696 -26.61065918 53.69772168 -25.0625 50.5625 C-23.05156587 46.48136278 -21.04298951 42.39906978 -19.03515625 38.31640625 C-18.53859528 37.30808746 -18.0420343 36.29976868 -17.53042603 35.26089478 C-13.43997211 26.93854251 -9.43285856 18.57772303 -5.47340393 10.192276 C-5.04575241 9.29085373 -4.61810089 8.38943146 -4.17749023 7.46069336 C-3.80389877 6.66916367 -3.43030731 5.87763397 -3.0453949 5.06211853 C-2 3 -2 3 0 0 Z " fill="#FAFDFE" transform="translate(255,196)"/>
<path d="M0 0 C1.70566536 2.55849805 2.91059919 4.9114392 4.1875 7.6875 C8.25304473 15.77185907 13.73610705 20.9284991 20.8125 26.375 C38.22851082 39.8035763 46.33032478 53.82257002 53.46289062 74.36889648 C57.61467535 86.26052368 62.13499845 96.8658763 73.9375 102.6875 C82.24024885 106.16306928 91.12481483 107.87723008 99.8671875 109.890625 C118.99537376 114.5831946 132.50467925 124.83207763 146.46875 138.3984375 C155.2704637 146.78234834 164.69670062 151.41192481 176.95703125 151.28515625 C182.71083467 150.745968 188.24804491 149.06718802 193.81738281 147.58203125 C213.34407869 142.37491235 229.44177138 141.54784646 249 147 C262.57947439 150.72966209 275.33182831 153.96162536 288.390625 146.6640625 C296.69271832 141.17396853 303.72452126 133.99725877 310.92578125 127.17578125 C323.24369673 116.01935656 337.28251684 111.73400624 353.10327148 108.1315918 C365.7588453 105.24777523 377.50938164 102.23231902 385 90.6875 C389.23621784 83.25205514 391.82793343 75.06878726 394.70166016 67.03955078 C400.85780001 50.06352876 409.58752513 37.65993097 423.9375 26.625 C433.21677669 19.46659509 440.50498383 12.48711609 444 1 C444.33 1 444.66 1 445 1 C444.40790739 11.85503113 438.72541303 19.63615077 431 27 C428.1123498 29.41062904 425.12825646 31.69380946 422.14819336 33.98828125 C408.18921161 44.7598086 401.02657233 57.65095152 395 74 C386.9857649 95.72095481 386.9857649 95.72095481 382 101 C381.34 101 380.68 101 380 101 C380 101.66 380 102.32 380 103 C370.91417804 110.0354816 360.06765525 112.61160896 349.0625 114.9375 C332.93987851 118.3949811 318.34423823 124.71040858 307 137 C306.34 137 305.68 137 305 137 C305 137.66 305 138.32 305 139 C302.52999987 141.54882992 299.74038725 143.74846399 297 146 C296.34128906 146.54527344 295.68257813 147.09054687 295.00390625 147.65234375 C285.62557275 155.06820908 276.74256341 157.81943716 264.875 156.4375 C259.41929975 155.59951382 254.27406563 154.24950863 248.97802734 152.70800781 C228.04651045 146.72757441 211.03135934 148.23491118 190.26953125 154.37109375 C178.69487578 157.63548652 168.25647383 157.92829382 157.2578125 152.6953125 C150.87146436 148.97457054 146.00110309 144.16826282 140.90209961 138.9140625 C127.40148635 125.09300125 112.67075394 118.32939363 94.09326172 114.44287109 C84.29074495 112.36895397 75.03110621 110.26953369 67 104 C65.86498047 103.12601563 65.86498047 103.12601563 64.70703125 102.234375 C56.33805364 94.45597929 53.63915129 83.31189977 49.98730469 72.80908203 C46.67164502 63.37535795 42.8600164 55.11358274 36.63671875 47.20703125 C35 45 35 45 34 42 C33.34 42 32.68 42 32 42 C32 41.34 32 40.68 32 40 C31.20722656 39.66935547 31.20722656 39.66935547 30.3984375 39.33203125 C27.13237155 37.5181412 24.43365394 35.12403965 21.625 32.6875 C20.51320275 31.73286101 19.40122446 30.77843283 18.2890625 29.82421875 C17.74314453 29.35105225 17.19722656 28.87788574 16.63476562 28.39038086 C15.56608989 27.48146385 14.48173162 26.59058986 13.38085938 25.72094727 C9.93587829 22.99115547 7.55783951 20.29421298 5.25 16.5625 C4.67765625 15.65628906 4.1053125 14.75007813 3.515625 13.81640625 C1.05237636 9.23908082 -0.30674638 5.21468841 0 0 Z " fill="#050604" transform="translate(33,339)"/>
<path d="M0 0 C4.25581425 1.97591376 7.00908811 4.28106414 9.578125 8.27734375 C10.155625 9.16421875 10.733125 10.05109375 11.328125 10.96484375 C13.55356969 16.86227217 13.59727702 22.71862672 11.015625 28.52734375 C8.17434174 33.5046272 4.11161385 36.81058705 -0.796875 39.65234375 C-7.22573693 41.18302516 -12.75099433 40.87892552 -18.56640625 37.6171875 C-22.90198351 34.48644434 -26.41700609 30.2486929 -28.421875 25.27734375 C-29.36306185 18.34228274 -29.05732546 12.62102205 -24.8515625 6.89453125 C-18.13853601 -0.69889216 -9.79549651 -2.92284976 0 0 Z " fill="#F9FBFB" transform="translate(263.421875,138.72265625)"/>
<path d="M0 0 C4.474834 2.27963242 6.83758394 4.50040745 9 9 C9.34057617 12.41333008 9.34057617 12.41333008 9.29296875 16.26953125 C9.28872391 16.95053391 9.28447906 17.63153656 9.28010559 18.33317566 C9.2634061 20.49336459 9.22577312 22.65259642 9.1875 24.8125 C9.17244174 26.28318958 9.15875534 27.75389389 9.14648438 29.22460938 C9.11353214 32.81671357 9.06181173 36.40826326 9 40 C8.42185547 39.83773926 7.84371094 39.67547852 7.24804688 39.50830078 C3.69801912 38.70561206 0.12061766 38.85655882 -3.5 38.875 C-4.63888672 38.86919922 -4.63888672 38.86919922 -5.80078125 38.86328125 C-9.37014456 38.86953232 -12.56731602 39.03659064 -16 40 C-16.0743839 35.53429551 -16.12871171 31.06892316 -16.16479492 26.6027832 C-16.17984353 25.08481562 -16.20028738 23.56689124 -16.22631836 22.04907227 C-16.26287653 19.86203323 -16.27976523 17.67557104 -16.29296875 15.48828125 C-16.3086792 14.17384033 -16.32438965 12.85939941 -16.34057617 11.50512695 C-15.88144666 6.7798779 -14.44211547 4.19489567 -10.8125 1.1875 C-7.13998514 -0.36311739 -3.88989939 -0.68645283 0 0 Z " fill="#4285F5" transform="translate(259,83)"/>
<path d="M0 0 C0.66 0.33 1.32 0.66 2 1 C1.26656372 2.28414795 1.26656372 2.28414795 0.51831055 3.59423828 C-1.11105693 7.24911469 -1.34965405 9.52421661 -1.29296875 13.4921875 C-1.28330078 14.69101563 -1.27363281 15.88984375 -1.26367188 17.125 C-1.23853516 18.3625 -1.21339844 19.6 -1.1875 20.875 C-1.17396484 22.13570312 -1.16042969 23.39640625 -1.14648438 24.6953125 C-1.11123435 27.79731454 -1.06195504 30.89843534 -1 34 C0.485 33.505 0.485 33.505 2 33 C4.69848628 32.90372662 7.36490376 32.86068914 10.0625 32.875 C10.79533203 32.87113281 11.52816406 32.86726563 12.28320312 32.86328125 C17.74663018 32.87331509 17.74663018 32.87331509 20 34 C19.88952802 29.64533833 19.75903781 25.29149501 19.625 20.9375 C19.5940625 19.70837891 19.563125 18.47925781 19.53125 17.21289062 C19.33533859 11.15596296 19.08876869 5.71439565 17 0 C21.95550428 4.79564931 21.95550428 4.79564931 22.11352539 9.07275391 C22.10828857 10.36101074 22.10305176 11.64926758 22.09765625 12.9765625 C22.0962413 13.66181 22.09482635 14.3470575 22.09336853 15.05307007 C22.08776675 17.24375761 22.07521406 19.4343433 22.0625 21.625 C22.05748522 23.10937352 22.05292228 24.59374865 22.04882812 26.078125 C22.03779677 29.71878315 22.02053099 33.35938164 22 37 C21.42185547 36.83773926 20.84371094 36.67547852 20.24804688 36.50830078 C16.69801912 35.70561206 13.12061766 35.85655882 9.5 35.875 C8.36111328 35.86919922 8.36111328 35.86919922 7.19921875 35.86328125 C3.62985544 35.86953232 0.43268398 36.03659064 -3 37 C-3.0743839 32.53429551 -3.12871171 28.06892316 -3.16479492 23.6027832 C-3.17984353 22.08481562 -3.20028738 20.56689124 -3.22631836 19.04907227 C-3.26287653 16.86203323 -3.27976523 14.67557104 -3.29296875 12.48828125 C-3.3086792 11.17384033 -3.32438965 9.85939941 -3.34057617 8.50512695 C-2.98318095 4.82690239 -2.15411544 2.95414447 0 0 Z " fill="#4682DF" transform="translate(246,86)"/>
<path d="M0 0 C0.33 1.65 0.66 3.3 1 5 C-8.05293337 5.13534286 -16.97859571 4.75741925 -26 4 C-26 6.97 -26 9.94 -26 13 C-26.33 13 -26.66 13 -27 13 C-27 8.71 -27 4.42 -27 0 C-19.84979186 -3.57510407 -7.76190208 -0.78318291 0 0 Z " fill="#51D68F" transform="translate(428,279)"/>
<path d="M0 0 C0 5.72119502 -3.65432915 10.58215901 -6.875 15.125 C-11.82328237 22.4172056 -14.84976107 30.67795772 -17.7578125 38.94921875 C-18.20846069 40.21983154 -18.20846069 40.21983154 -18.66821289 41.51611328 C-19.25172426 43.17759938 -19.8218875 44.84385137 -20.37670898 46.51513672 C-22.13069073 51.5368753 -23.93090328 54.54300672 -28 58 C-28 54.20271333 -26.74491827 52.40324455 -24.9375 49.0625 C-21.83479976 43.14983702 -19.54849289 37.14133832 -17.4375 30.8125 C-13.57903217 19.37287525 -8.68122429 8.68122429 0 0 Z " fill="#0C0E0C" transform="translate(445,376)"/>
<path d="M0 0 C0.99 0 1.98 0 3 0 C2.58131648 5.60610134 0.99707766 9.19810892 -2.3125 13.625 C-2.70373047 14.1715625 -3.09496094 14.718125 -3.49804688 15.28125 C-5.89527606 18.60477173 -8.41683722 21.81981333 -11 25 C-11 23.35 -11 21.7 -11 20 C-11.66 20 -12.32 20 -13 20 C-11.18606214 16.07637354 -8.83861478 12.49873216 -6.5 8.875 C-6.09652344 8.24207031 -5.69304687 7.60914063 -5.27734375 6.95703125 C-3.65325858 4.43246321 -2.12909972 2.12909972 0 0 Z " fill="#5AD597" transform="translate(386,197)"/>
<path d="M0 0 C1.670625 0.37125 1.670625 0.37125 3.375 0.75 C4.77435013 3.54870027 4.62765405 5.65498792 4.375 8.75 C3.1875 10.625 3.1875 10.625 1.375 11.75 C-1.44615488 12.17317323 -2.96450907 12.13718434 -5.4375 10.6875 C-7.29001934 7.66496844 -7.00143703 5.20067281 -6.625 1.75 C-3.625 -0.25 -3.625 -0.25 0 0 Z " fill="#F3FEF6" transform="translate(375.625,288.25)"/>
<path d="M0 0 C1.9375 1.0625 1.9375 1.0625 3 3 C2.8125 6.625 2.8125 6.625 2 10 C-0.79870027 11.39935013 -2.90498792 11.25265405 -6 11 C-7.875 9.8125 -7.875 9.8125 -9 8 C-9.42822025 5.14519831 -9.40659584 3.65507108 -7.875 1.1875 C-5.12844028 -0.55198782 -3.18153026 -0.39769128 0 0 Z " fill="#DDFEEC" transform="translate(348,228)"/>
<path d="M0 0 C3.11720129 1.55860065 3.77414182 4.61236771 5.0625 7.6875 C5.33126953 8.30044922 5.60003906 8.91339844 5.87695312 9.54492188 C9.46538159 17.98354542 9.18294324 26.22760692 9.1875 35.25 C9.19974609 36.54164063 9.21199219 37.83328125 9.22460938 39.1640625 C9.22750977 41.00871094 9.22750977 41.00871094 9.23046875 42.890625 C9.23457764 44.01500977 9.23868652 45.13939453 9.24291992 46.29785156 C9 49 9 49 7 51 C6.98018066 49.99622314 6.96036133 48.99244629 6.93994141 47.95825195 C6.86366251 44.22135034 6.77498014 40.48482683 6.68261719 36.74829102 C6.64441928 35.1334583 6.60955055 33.51854316 6.578125 31.90356445 C6.53227391 29.57733783 6.47431416 27.25167408 6.4140625 24.92578125 C6.40251129 24.20787918 6.39096008 23.48997711 6.37905884 22.75032043 C6.18676672 16.16633771 3.87067969 11.61566877 0.8046875 5.96484375 C0 4 0 4 0 0 Z " fill="#568ADD" transform="translate(368,343)"/>
<path d="M0 0 C3.23217856 3.68897467 5.06715746 7.11540671 6.8125 11.6875 C7.05895264 12.32526367 7.30540527 12.96302734 7.55932617 13.62011719 C8.09261231 15.00171501 8.62218319 16.38475143 9.1484375 17.76904297 C10.05500399 20.14410163 10.97873061 22.5119553 11.90625 24.87890625 C16.75183967 37.25551902 16.75183967 37.25551902 18 41 C17.01 41 16.02 41 15 41 C14.68772461 40.15816162 14.37544922 39.31632324 14.05371094 38.44897461 C12.88066293 35.29559406 11.70215736 32.14436338 10.52001953 28.99438477 C10.01166782 27.63647001 9.50543861 26.27775855 9.00146484 24.91821289 C6.42732097 17.97821907 3.83190216 11.36240358 0 5 C-0.25 2.0625 -0.25 2.0625 0 0 Z " fill="#0C0F0C" transform="translate(74,387)"/>
<path d="M0 0 C1.134375 0.020625 2.26875 0.04125 3.4375 0.0625 C6.4375 5.6875 6.4375 5.6875 6.4375 9.0625 C7.0975 9.0625 7.7575 9.0625 8.4375 9.0625 C8.9325 13.0225 8.9325 13.0225 9.4375 17.0625 C7.68816712 14.43850067 6.24017425 11.86775467 4.8125 9.0625 C4.14347656 7.763125 4.14347656 7.763125 3.4609375 6.4375 C2.4375 4.0625 2.4375 4.0625 2.4375 1.0625 C1.88924561 1.239021 1.34099121 1.41554199 0.77612305 1.59741211 C-19.35415053 8.02025986 -19.35415053 8.02025986 -28.5625 8.0625 C-26.5625 6.0625 -26.5625 6.0625 -22.9375 5.9375 C-21.266875 5.999375 -21.266875 5.999375 -19.5625 6.0625 C-19.5625 5.4025 -19.5625 4.7425 -19.5625 4.0625 C-18.49128906 3.85753906 -17.42007812 3.65257812 -16.31640625 3.44140625 C-14.91923149 3.16947291 -13.52209819 2.89732648 -12.125 2.625 C-11.41794922 2.49029297 -10.71089844 2.35558594 -9.98242188 2.21679688 C-6.29431381 1.49329242 -3.63054856 0.06369383 0 0 Z " fill="#578ADD" transform="translate(310.5625,310.9375)"/>
<path d="M0 0 C4.95550428 4.79564931 4.95550428 4.79564931 5.11352539 9.07275391 C5.10828857 10.36101074 5.10305176 11.64926758 5.09765625 12.9765625 C5.0962413 13.66181 5.09482635 14.3470575 5.09336853 15.05307007 C5.08776675 17.24375761 5.07521406 19.4343433 5.0625 21.625 C5.05748522 23.10937352 5.05292228 24.59374865 5.04882812 26.078125 C5.03779677 29.71878315 5.02053099 33.35938164 5 37 C2.27917851 34.27917851 2.71986636 32.73097172 2.65625 28.92578125 C2.62660156 27.70052734 2.59695313 26.47527344 2.56640625 25.21289062 C2.54449219 23.92576172 2.52257812 22.63863281 2.5 21.3125 C2.47915307 10.45964056 2.47915307 10.45964056 0 0 Z " fill="#5D8FE4" transform="translate(263,86)"/>
<path d="M0 0 C2.00123626 3.00185438 3.113748 5.69246678 4.375 9.0625 C6.2621644 14.07440545 8.22593413 19.03957449 10.30078125 23.9765625 C11 26 11 26 11 29 C11.66 29 12.32 29 13 29 C13 31.97 13 34.94 13 38 C10.27727402 32.55454805 8.14507122 26.92036682 5.9375 21.25 C5.47794922 20.095 5.01839844 18.94 4.54492188 17.75 C2.22124496 11.77190609 0.38732996 6.41861077 0 0 Z " fill="#080C08" transform="translate(22,245)"/>
<path d="M0 0 C2 2 2 2 2.22705078 4.88916016 C2.21657715 6.09362793 2.20610352 7.2980957 2.1953125 8.5390625 C2.18886719 9.84101563 2.18242187 11.14296875 2.17578125 12.484375 C2.15906929 13.86458595 2.14213939 15.24479429 2.125 16.625 C2.11497006 18.01301452 2.10584423 19.40103589 2.09765625 20.7890625 C2.07401863 24.19288026 2.04106867 27.59635506 2 31 C5.41906232 31.72978305 8.49870129 32.10003711 12 32 C10.875 33.5 10.875 33.5 9 35 C5.9743816 35.3782023 3.95131652 35.60846967 1.33081055 33.93237305 C-0.67352279 31.02202663 -0.36997993 28.1113761 -0.29296875 24.70703125 C-0.28872391 24.00100266 -0.28447906 23.29497406 -0.28010559 22.56755066 C-0.26333034 20.31547697 -0.22568243 18.06430258 -0.1875 15.8125 C-0.17245157 14.28451815 -0.15876344 12.75652224 -0.14648438 11.22851562 C-0.11343089 7.48533128 -0.06165832 3.74281804 0 0 Z " fill="#5487DC" transform="translate(134,361)"/>
<path d="M0 0 C0.99 0.33 1.98 0.66 3 1 C3.33 1.99 3.66 2.98 4 4 C2 6 2 6 -0.16723633 6.24291992 C-1.04661865 6.23881104 -1.92600098 6.23470215 -2.83203125 6.23046875 C-3.79560547 6.22853516 -4.75917969 6.22660156 -5.75195312 6.22460938 C-7.26692383 6.20624023 -7.26692383 6.20624023 -8.8125 6.1875 C-9.81087891 6.18685547 -10.80925781 6.18621094 -11.83789062 6.18554688 C-16.46785061 6.15778562 -20.4175414 5.91649172 -25 5 C-25 8.63 -25 12.26 -25 16 C-25.66 16.33 -26.32 16.66 -27 17 C-26.67 12.71 -26.34 8.42 -26 4 C-16.92881858 3.9083719 -8.03215123 4.15979989 1 5 C0.67 3.35 0.34 1.7 0 0 Z " fill="#D6FCEA" transform="translate(428,279)"/>
<path d="M0 0 C0.66 0 1.32 0 2 0 C1.65176183 6.50044584 0.05312199 10.85143963 -4 16 C-4.33 16 -4.66 16 -5 16 C-5 14.35 -5 12.7 -5 11 C-5.66 11 -6.32 11 -7 11 C-5.25731793 7.03935893 -2.85325271 3.25563451 0 0 Z " fill="#50D691" transform="translate(380,206)"/>
<path d="M0 0 C0 0.66 0 1.32 0 2 C-3.13498292 3.85776765 -5.37471432 4.20140476 -9 4 C-9 4.66 -9 5.32 -9 6 C-10.98 6 -12.96 6 -15 6 C-14.67 7.65 -14.34 9.3 -14 11 C-14.66 11 -15.32 11 -16 11 C-16.66 9.02 -17.32 7.04 -18 5 C-22.455 5.495 -22.455 5.495 -27 6 C-27 5.34 -27 4.68 -27 4 C-27.66 3.67 -28.32 3.34 -29 3 C-27.72125 3.03480469 -26.4425 3.06960937 -25.125 3.10546875 C-23.41667991 3.13362787 -21.70834548 3.16092574 -20 3.1875 C-18.74123047 3.22520508 -18.74123047 3.22520508 -17.45703125 3.26367188 C-11.18262108 3.33663013 -5.80266133 0 0 0 Z " fill="#487FCD" transform="translate(274,191)"/>
<path d="M0 0 C1.33895632 1.66215268 2.67130142 3.32963607 4 5 C4.86625 6.0209375 4.86625 6.0209375 5.75 7.0625 C7 9 7 9 7 13 C7.66 13 8.32 13 9 13 C9.70226141 14.24176695 10.38629109 15.49385599 11.0625 16.75 C11.44535156 17.44609375 11.82820313 18.1421875 12.22265625 18.859375 C13.1312406 21.36140628 12.88336837 22.5332355 12 25 C9.125 18.375 9.125 18.375 8 15 C7.360625 14.7525 6.72125 14.505 6.0625 14.25 C2.86500469 12.31212406 2.87412637 9.49650548 2 6 C1.34 5.34 0.68 4.68 0 4 C0 2.68 0 1.36 0 0 Z " fill="#49ADC3" transform="translate(331,267)"/>
<path d="M0 0 C0.66 0.33 1.32 0.66 2 1 C1.5155542 1.85158691 1.0311084 2.70317383 0.53198242 3.58056641 C-1.10923515 7.24381634 -1.42025641 9.72317957 -1.51171875 13.7109375 C-1.54716797 14.95488281 -1.58261719 16.19882813 -1.61914062 17.48046875 C-1.64169922 18.76566406 -1.66425781 20.05085938 -1.6875 21.375 C-1.72166016 22.68339844 -1.75582031 23.99179688 -1.79101562 25.33984375 C-1.87327754 28.55981025 -1.94250263 31.77951179 -2 35 C-1.01 35.33 -0.02 35.66 1 36 C-0.98 36.495 -0.98 36.495 -3 37 C-3.0743839 32.53429551 -3.12871171 28.06892316 -3.16479492 23.6027832 C-3.17984353 22.08481562 -3.20028738 20.56689124 -3.22631836 19.04907227 C-3.26287653 16.86203323 -3.27976523 14.67557104 -3.29296875 12.48828125 C-3.3086792 11.17384033 -3.32438965 9.85939941 -3.34057617 8.50512695 C-2.98318095 4.82690239 -2.15411544 2.95414447 0 0 Z " fill="#5684D3" transform="translate(246,86)"/>
<path d="M0 0 C0.66 0 1.32 0 2 0 C1.40541585 3.65569682 0.39426489 6.56821446 -1.28515625 9.86328125 C-1.73310547 10.74951172 -2.18105469 11.63574219 -2.64257812 12.54882812 C-3.11115234 13.46083984 -3.57972656 14.37285156 -4.0625 15.3125 C-4.53494141 16.24384766 -5.00738281 17.17519531 -5.49414062 18.13476562 C-6.65737644 20.42598769 -7.82613132 22.7142124 -9 25 C-9.33 25 -9.66 25 -10 25 C-10 23.35 -10 21.7 -10 20 C-9.34 20 -8.68 20 -8 20 C-8 18.68 -8 17.36 -8 16 C-7.34 16 -6.68 16 -6 16 C-5.34 13.36 -4.68 10.72 -4 8 C-3.34 8 -2.68 8 -2 8 C-2 6.35 -2 4.7 -2 3 C-1.34 3 -0.68 3 0 3 C0 2.01 0 1.02 0 0 Z " fill="#598EE1" transform="translate(227,248)"/>
<path d="M0 0 C2.625 0.375 2.625 0.375 5 1 C5.1875 3.375 5.1875 3.375 5 6 C2 8 2 8 -0.1875 7.625 C-0.785625 7.41875 -1.38375 7.2125 -2 7 C-2.125 4.625 -2.125 4.625 -2 2 C-1.34 1.34 -0.68 0.68 0 0 Z " fill="#FBFDFC" transform="translate(343,229)"/>
<path d="M0 0 C0.9178125 0.00902344 1.835625 0.01804688 2.78125 0.02734375 C5.02111556 0.05067568 7.26041183 0.08340765 9.5 0.125 C9.5 0.455 9.5 0.785 9.5 1.125 C8.5821875 1.18558594 7.664375 1.24617187 6.71875 1.30859375 C-3.97060292 1.0747259 -3.97060292 1.0747259 -13.5 4.125 C-15.01928038 4.19679964 -16.54167482 4.20892007 -18.0625 4.1875 C-18.88878906 4.17847656 -19.71507812 4.16945312 -20.56640625 4.16015625 C-21.20449219 4.14855469 -21.84257812 4.13695312 -22.5 4.125 C-15.41187627 -0.00973884 -7.95530705 -0.1503183 0 0 Z " fill="#75DCA1" transform="translate(330.5,204.875)"/>
<path d="M0 0 C0.66 1.32 1.32 2.64 2 4 C0.71034824 5.37562854 -0.62689293 6.70766393 -2 8 C-2.66 8 -3.32 8 -4 8 C-4 8.66 -4 9.32 -4 10 C-5.96147874 11.38938077 -7.96166576 12.7260411 -10 14 C-9.6875 12.0625 -9.6875 12.0625 -9 10 C-8.01 9.67 -7.02 9.34 -6 9 C-5.87625 8.4225 -5.7525 7.845 -5.625 7.25 C-4.70302589 3.93089319 -2.48202881 2.29110352 0 0 Z " fill="#030501" transform="translate(342,468)"/>
<path d="M0 0 C0.99 0.495 0.99 0.495 2 1 C2 1.66 2 2.32 2 3 C2.66 3 3.32 3 4 3 C6.11044382 6.16566573 6.75552077 8.51197415 7.625 12.1875 C7.88539063 13.27417969 8.14578125 14.36085938 8.4140625 15.48046875 C8.60742188 16.31191406 8.80078125 17.14335937 9 18 C8.01 17.34 7.02 16.68 6 16 C6 15.34 6 14.68 6 14 C5.34 14 4.68 14 4 14 C3.67 11.36 3.34 8.72 3 6 C2.34 6 1.68 6 1 6 C0.67 4.02 0.34 2.04 0 0 Z " fill="#43C2B4" transform="translate(351,306)"/>
<path d="M0 0 C1.65 0 3.3 0 5 0 C6.3125 2.5625 6.3125 2.5625 7 6 C4.9375 9.1875 4.9375 9.1875 3.515625 10.921875 C0.62783662 14.88141989 -1.09128764 19.50843432 -3 24 C-3.66 23.67 -4.32 23.34 -5 23 C-1.66666667 16.33333333 1.66666667 9.66666667 5 3 C2.525 2.01 2.525 2.01 0 1 C0 0.67 0 0.34 0 0 Z " fill="#6193E2" transform="translate(160,292)"/>
<path d="M0 0 C0.66 0 1.32 0 2 0 C2 0.66 2 1.32 2 2 C2.66 2 3.32 2 4 2 C4.33 2.99 4.66 3.98 5 5 C4.38125 5.103125 3.7625 5.20625 3.125 5.3125 C0.63473516 5.87525373 0.63473516 5.87525373 -1 9 C-1.66 9 -2.32 9 -3 9 C-3.33 10.32 -3.66 11.64 -4 13 C-4.66 12.67 -5.32 12.34 -6 12 C-4.02 8.04 -2.04 4.08 0 0 Z " fill="#4C85DC" transform="translate(222,178)"/>
<path d="M0 0 C2.31 0 4.62 0 7 0 C5.35 3.63 3.7 7.26 2 11 C1.67 11 1.34 11 1 11 C0.67 7.37 0.34 3.74 0 0 Z " fill="#4D86E7" transform="translate(248,196)"/>
<path d="M0 0 C1.98 0.99 1.98 0.99 4 2 C4 2.66 4 3.32 4 4 C5.98 4 7.96 4 10 4 C7.87219421 6.34058637 5.88437779 7.70700306 3 9 C0.70620251 5.55930376 0 4.27709699 0 0 Z " fill="#4FCFA3" transform="translate(364,332)"/>
<path d="M0 0 C1.32989445 3.98968334 0.29459089 5.6725547 -1.1875 9.5625 C-1.61417969 10.71878906 -2.04085937 11.87507813 -2.48046875 13.06640625 C-4.05994144 16.11572242 -4.80282482 16.95253147 -8 18 C-6.65150163 13.64029169 -4.95092154 9.68658562 -2.875 5.625 C-2.33617187 4.56539063 -1.79734375 3.50578125 -1.2421875 2.4140625 C-0.83226562 1.61742187 -0.42234375 0.82078125 0 0 Z " fill="#5389DD" transform="translate(151,324)"/>
<path d="M0 0 C2.80112417 1.40056209 3.09142592 3.4508105 4.2109375 6.23828125 C4.97483859 8.13251751 4.97483859 8.13251751 6.5625 10 C8.5633259 12.78375777 9.17584293 15.70337171 10 19 C9.01 19 8.02 19 7 19 C7 17.02 7 15.04 7 13 C6.34 13 5.68 13 5 13 C5 12.01 5 11.02 5 10 C4.34 10 3.68 10 3 10 C3 9.01 3 8.02 3 7 C2.34 7 1.68 7 1 7 C0.67 4.69 0.34 2.38 0 0 Z " fill="#47A3D0" transform="translate(320,244)"/>
<path d="M0 0 C3.36720387 1.39332574 4.9859524 2.9789286 7 6 C6.01 7.485 6.01 7.485 5 9 C3.02 6.69 1.04 4.38 -1 2 C-0.67 1.34 -0.34 0.68 0 0 Z " fill="#0E1111" transform="translate(170,470)"/>
<path d="M0 0 C3.44862127 1.14954042 3.84195809 1.82527151 5.6875 4.8125 C6.12449219 5.49957031 6.56148438 6.18664062 7.01171875 6.89453125 C8 9 8 9 8 13 C8.66 13 9.32 13 10 13 C10 13.99 10 14.98 10 16 C9.34 16 8.68 16 8 16 C5.33333333 10.66666667 2.66666667 5.33333333 0 0 Z " fill="#E1FEED" transform="translate(389,236)"/>
<path d="M0 0 C1.98 0 3.96 0 6 0 C6.33 0.99 6.66 1.98 7 3 C8.98 2.67 10.96 2.34 13 2 C12.34 3.32 11.68 4.64 11 6 C7.2089881 4.55049545 3.6125362 2.84827434 0 1 C0 0.67 0 0.34 0 0 Z " fill="#D8FDE6" transform="translate(361,212)"/>
<path d="M0 0 C0.66 0.33 1.32 0.66 2 1 C-0.31 4.63 -2.62 8.26 -5 12 C-5.33 10.68 -5.66 9.36 -6 8 C-5.34 8 -4.68 8 -4 8 C-4.33 6.68 -4.66 5.36 -5 4 C-3.35 2.68 -1.7 1.36 0 0 Z " fill="#DBFCEB" transform="translate(381,201)"/>
<path d="M0 0 C2.60157681 0.40829576 4.09749179 1.46077304 5.94140625 3.3046875 C0.94140625 3.3046875 -4.05859375 3.3046875 -9.05859375 3.3046875 C-6.31140687 0.06968239 -4.25925329 -0.14119072 0 0 Z " fill="#568ADE" transform="translate(257.05859375,82.6953125)"/>
<path d="M0 0 C3 1 3 1 5 3 C7.5270936 10.18226601 7.5270936 10.18226601 6 14 C4.23537317 10.91190305 4 9.76687864 4 6 C3.34 6 2.68 6 2 6 C1.34 4.02 0.68 2.04 0 0 Z " fill="#48CAA7" transform="translate(344,292)"/>
<path d="M0 0 C0 0.99 0 1.98 0 3 C-4.20406102 6.54717649 -7.76933149 6.2659662 -13 6 C-13.66 4.68 -14.32 3.36 -15 2 C-13.515 2.99 -13.515 2.99 -12 4 C-6.73819436 4.70157408 -4.14647225 3.15921695 0 0 Z " fill="#E3F7FE" transform="translate(149,391)"/>
<path d="M0 0 C1.5778125 0.2475 1.5778125 0.2475 3.1875 0.5 C6.20468796 0.89569678 8.97093972 1.09178971 12 1 C10.10442866 3.52742845 9.19410622 3.97169284 6 4.4375 C3 4 3 4 1.125 2 C0.75375 1.34 0.3825 0.68 0 0 Z " fill="#588AE9" transform="translate(134,392)"/>
<path d="M0 0 C0.33 0 0.66 0 1 0 C1.49230769 6.4 1.49230769 6.4 -1 9.4375 C-1.99 10.2109375 -1.99 10.2109375 -3 11 C-3.33 10.34 -3.66 9.68 -4 9 C-3.22265625 6.8359375 -3.22265625 6.8359375 -2.0625 4.375 C-1.68222656 3.55773437 -1.30195313 2.74046875 -0.91015625 1.8984375 C-0.60980469 1.27195312 -0.30945313 0.64546875 0 0 Z " fill="#5A8EE3" transform="translate(139,348)"/>
<path d="M0 0 C0.66 0 1.32 0 2 0 C1.814375 0.94875 1.62875 1.8975 1.4375 2.875 C0.71313368 5.89868793 0.71313368 5.89868793 2 8 C3.64363134 8.72159424 5.31050386 9.39351421 7 10 C7 10.33 7 10.66 7 11 C4.29686424 11.21917317 2.56041618 11.32851983 0.1875 9.9375 C-1.62623389 6.97824997 -1.25068132 4.38419775 -1 1 C-0.67 0.67 -0.34 0.34 0 0 Z " fill="#D5FCE3" transform="translate(370,289)"/>
<path d="M0 0 C-3.63195496 2.42130331 -5.38349348 2.21022785 -9.6875 2.125 C-10.86699219 2.10695313 -12.04648437 2.08890625 -13.26171875 2.0703125 C-14.16535156 2.04710937 -15.06898438 2.02390625 -16 2 C-16 1.67 -16 1.34 -16 1 C-14.0852312 0.63571223 -12.16807707 0.28394694 -10.25 -0.0625 C-9.18265625 -0.25972656 -8.1153125 -0.45695312 -7.015625 -0.66015625 C-4.25228095 -0.97156937 -2.59053383 -0.8991416 0 0 Z " fill="#DBEEFD" transform="translate(290,319)"/>
<path d="M0 0 C0.99 0.33 1.98 0.66 3 1 C2.01 1.495 2.01 1.495 1 2 C0.7834375 2.99 0.7834375 2.99 0.5625 4 C0.376875 4.66 0.19125 5.32 0 6 C-0.99 6.33 -1.98 6.66 -3 7 C-2.25 2.25 -2.25 2.25 0 0 Z " fill="#0D1011" transform="translate(346,464)"/>
<path d="M0 0 C2 2 2 2 2 5 C2.66 5 3.32 5 4 5 C4 7.97 4 10.94 4 14 C1.57792279 9.15584557 0 5.44453532 0 0 Z " fill="#363935" transform="translate(31,269)"/>
<path d="M0 0 C0.66 0 1.32 0 2 0 C3.32 3.3 4.64 6.6 6 10 C5.01 10 4.02 10 3 10 C2.01 6.7 1.02 3.4 0 0 Z " fill="#1A1E1A" transform="translate(86,418)"/>
<path d="M0 0 C0.66 0 1.32 0 2 0 C2.33 1.32 2.66 2.64 3 4 C3.99 4 4.98 4 6 4 C6 6.31 6 8.62 6 11 C3.13546142 7.58983503 1.65296434 4.09305456 0 0 Z " fill="#5085DF" transform="translate(281,248)"/>
<path d="M0 0 C0.33 0 0.66 0 1 0 C1.2295711 3.36704285 1.33943529 5.41370268 -0.375 8.375 C-0.91125 8.91125 -1.4475 9.4475 -2 10 C-2.66 10 -3.32 10 -4 10 C-2.8905928 6.51329166 -1.73662334 3.22515763 0 0 Z " fill="#DCF0FD" transform="translate(234,238)"/>
<path d="M0 0 C3 3.625 3 3.625 3 7 C3.99 7.33 4.98 7.66 6 8 C4.33388095 8.042721 2.66617115 8.04063832 1 8 C0 7 0 7 -0.0625 3.4375 C-0.041875 2.303125 -0.02125 1.16875 0 0 Z " fill="#BFF6D7" transform="translate(402,270)"/>
<path d="M0 0 C1.65 0 3.3 0 5 0 C5.66 1.98 6.32 3.96 7 6 C6.01 6.33 5.02 6.66 4 7 C4.33 5.68 4.66 4.36 5 3 C2.525 2.01 2.525 2.01 0 1 C0 0.67 0 0.34 0 0 Z " fill="#4D8ADF" transform="translate(160,292)"/>
<path d="M0 0 C0.8125 1.6875 0.8125 1.6875 1 4 C-1.4375 6.75 -1.4375 6.75 -4 9 C-4.66 8.67 -5.32 8.34 -6 8 C-5.38125 7.236875 -4.7625 6.47375 -4.125 5.6875 C-1.94402948 3.00374191 -1.94402948 3.00374191 0 0 Z " fill="#DDF3FE" transform="translate(170,370)"/>
<path d="M0 0 C0 0.66 0 1.32 0 2 C0.99 2.33 1.98 2.66 3 3 C1.741875 2.87625 0.48375 2.7525 -0.8125 2.625 C-1.87404297 2.52058594 -1.87404297 2.52058594 -2.95703125 2.4140625 C-5 2 -5 2 -8 0 C-2.25 -1.125 -2.25 -1.125 0 0 Z " fill="#DCEFFD" transform="translate(227,275)"/>
<path d="M0 0 C1.65 0 3.3 0 5 0 C5.33 1.98 5.66 3.96 6 6 C3.97945196 4.35830472 1.97956942 2.69088222 0 1 C0 0.67 0 0.34 0 0 Z " fill="#578BDC" transform="translate(129,266)"/>
<path d="M0 0 C1.98 0.66 3.96 1.32 6 2 C6.33 1.34 6.66 0.68 7 0 C6.67 1.65 6.34 3.3 6 5 C4.68 4.67 3.36 4.34 2 4 C2 3.34 2 2.68 2 2 C1.34 2 0.68 2 0 2 C0 1.34 0 0.68 0 0 Z " fill="#558FEA" transform="translate(178,256)"/>
<path d="M0 0 C3 2 3 2 3.6875 5.125 C3.8421875 6.548125 3.8421875 6.548125 4 8 C3.01 8 2.02 8 1 8 C0.67 5.36 0.34 2.72 0 0 Z " fill="#4295DD" transform="translate(305,214)"/>
<path d="M0 0 C6.875 2.75 6.875 2.75 8 5 C4.62537285 4.45276317 2.91765 3.9451 0 2 C0 1.34 0 0.68 0 0 Z " fill="#56D593" transform="translate(360,212)"/>
<path d="M0 0 C0.99 0 1.98 0 3 0 C2.67 0.99 2.34 1.98 2 3 C1.34 3 0.68 3 0 3 C-0.33 4.32 -0.66 5.64 -1 7 C-1.66 6.67 -2.32 6.34 -3 6 C-2.01 4.02 -1.02 2.04 0 0 Z " fill="#5991EA" transform="translate(219,184)"/>
</svg>
